{"title":"Yevadu (2014) Telugu Movie DVDScr XviD - Exclusive","uid":9473507,"size":734791934,"categoryP":"video","categoryS":"movies","magnet":"?xt=urn:btih:a36efcd6c2c9bf32b163da6c453062cfccdddb2b&amp;dn=Yevadu+%282014%29+Telugu+Movie+DVDScr+XviD+-+Exclusive&amp;tr=udp%3A%2F%2Ftracker.openbittorrent.com%3A80&amp;tr=udp%3A%2F%2Fopen.demonii.com%3A1337&amp;tr=udp%3A%2F%2Ftracker.coppersurfer.tk%3A6969&amp;tr=udp%3A%2F%2Fexodus.desync.com%3A6969","seeders":5,"leechers":0,"uploader":"hollytorrents","files":-1,"time":1389639215,"description":" &lt;a href=&quot;http://www.imageurlhost.com/images/gww4vtc771w93doec1k.jpg&quot; rel=&quot;nofollow&quot; target=&quot;_NEW&quot;&gt;http://www.imageurlhost.com/images/gww4vtc771w93doec1k.jpg&lt;/a&gt;\n\n\nInfo: &lt;a href=&quot;\nhttp://hollytorrents.com/torrents-details.php?id=351&quot; rel=&quot;nofollow&quot; target=&quot;_NEW&quot;&gt;\nhttp://hollytorrents.com/torrents-details.php?id=351&lt;/a&gt;\n\n\nFormat : AVI\nFormat/Info : Audio Video Interleave\nFile size : 700 MiB\nDuration : 2h 31mn\nOverall bit rate : 645 Kbps\n\nVideo\nID : 0\nFormat : MPEG-4 Visual\nFormat profile : Simple@L3\nFormat settings, BVOP : No\nFormat settings, QPel : No\nFormat settings, GMC : No warppoints\nFormat settings, Matrix : Default (H.263)\nCodec ID : XVID\nCodec ID/Hint : XviD\nDuration : 2h 31mn\nBit rate : 552 Kbps\nWidth : 608 pixels\nHeight : 256 pixels\nDisplay aspect ratio : 2.35:1\nFrame rate : 29.970 fps\nColor space : YUV\nChroma subsampling : 4:2:0\nBit depth : 8 bits\nScan type : Progressive\nBits/(Pixel*Frame) : 0.118\nStream size : 599 MiB (86%)\nWriting library : XviD 1.1.2 (UTC 2006-11-01)\n\nAudio\nID : 1\nFormat : MPEG Audio\nFormat version : Version 1\nFormat profile : Layer 3\nMode : Joint stereo\nMode extension : MS Stereo\nCodec ID : 55\nCodec ID/Hint : MP3\nDuration : 2h 31mn\nBit rate mode : Constant\nBit rate : 80.0 Kbps\nChannel(s) : 2 channels\nSampling rate : 44.1 KHz\nStream size : 86.8 MiB (12%)\nAlignment : Split accross interleaves\nInterleave, duration : 26 ms (0.78 video frame)\n\n\nScreens: &lt;a href=&quot;\nhttp://jan.imghost.us/2lTQ.png&quot; rel=&quot;nofollow&quot; target=&quot;_NEW&quot;&gt;\nhttp://jan.imghost.us/2lTQ.png&lt;/a&gt; &lt;a href=&quot;\nhttp://jan.imghost.us/2lTx.png&quot; rel=&quot;nofollow&quot; target=&quot;_NEW&quot;&gt;\nhttp://jan.imghost.us/2lTx.png&lt;/a&gt; &lt;a href=&quot;\nhttp://jan.imghost.us/2lUF.png&quot; rel=&quot;nofollow&quot; target=&quot;_NEW&quot;&gt;\nhttp://jan.imghost.us/2lUF.png&lt;/a&gt; &lt;a href=&quot;\nhttp://jan.imghost.us/2lUR.png&quot; rel=&quot;nofollow&quot; target=&quot;_NEW&quot;&gt;\nhttp://jan.imghost.us/2lUR.png&lt;/a&gt; &lt;a href=&quot;\nhttp://jan.imghost.us/2lUi.png&quot; rel=&quot;nofollow&quot; target=&quot;_NEW&quot;&gt;\nhttp://jan.imghost.us/2lUi.png&lt;/a&gt; &lt;a href=&quot;\nhttp://jan.imghost.us/2lV1.png&quot; rel=&quot;nofollow&quot; target=&quot;_NEW&quot;&gt;\nhttp://jan.imghost.us/2lV1.png&lt;/a&gt; &lt;a href=&quot;\nhttp://jan.imghost.us/2lVB.png&quot; rel=&quot;nofollow&quot; target=&quot;_NEW&quot;&gt;\nhttp://jan.imghost.us/2lVB.png&lt;/a&gt; &lt;a href=&quot;\nhttp://jan.imghost.us/2lVS.png&quot; rel=&quot;nofollow&quot; target=&quot;_NEW&quot;&gt;\nhttp://jan.imghost.us/2lVS.png&lt;/a&gt; &lt;a href=&quot;\nhttp://jan.imghost.us/2lVe.png&quot; rel=&quot;nofollow&quot; target=&quot;_NEW&quot;&gt;\nhttp://jan.imghost.us/2lVe.png&lt;/a&gt;\n\n\n\n\n\n\n\n\n","torrent":{"xt":"urn:btih:a36efcd6c2c9bf32b163da6c453062cfccdddb2b","amp;dn":"Yevadu+%282014%29+Telugu+Movie+DVDScr+XviD+-+Exclusive","amp;tr":["udp%3A%2F%2Ftracker.openbittorrent.com%3A80","udp%3A%2F%2Fopen.demonii.com%3A1337","udp%3A%2F%2Ftracker.coppersurfer.tk%3A6969","udp%3A%2F%2Fexodus.desync.com%3A6969"],"infoHash":"a36efcd6c2c9bf32b163da6c453062cfccdddb2b","infoHashBuffer":{"type":"Buffer","data":[163,110,252,214,194,201,191,50,177,99,218,108,69,48,98,207,204,221,219,43]},"announce":[],"urlList":[]}}